<svg width="1323" height="415" viewBox="0 0 1323 415" fill="none" xmlns="http://www.w3.org/2000/svg">
<path d="M157.875 177.805C158.56 174.79 159.382 173.146 160.616 173.009C161.986 172.734 162.808 173.831 162.945 176.161C163.219 178.079 163.356 181.368 163.219 185.754C162.26 196.169 162.397 204.529 163.493 211.107C165.412 223.031 171.031 228.238 180.076 226.731C194.877 224.264 214.886 209.463 240.377 182.191C266.141 154.644 288.343 124.631 307.255 92.4252C326.305 59.8081 334.665 35.962 332.061 20.8869C330.142 9.23792 321.371 4.71539 305.748 7.31927C283.683 11.0195 258.193 23.6278 229.413 45.4182C200.633 67.0716 172.95 93.3845 146.363 124.357C119.639 155.055 95.1072 187.124 72.7687 220.564C50.5671 253.729 33.2992 285.524 20.828 316.222C8.63086 346.509 3.97128 370.356 6.84926 387.623C7.2604 389.953 8.35677 390.913 10.4125 390.501C18.6353 389.131 33.9845 369.67 56.186 332.12C78.5246 294.295 99.3557 254.825 118.679 213.711C138.277 172.323 149.515 144.914 152.256 131.62C152.804 129.428 153.489 128.331 154.311 128.194C157.463 127.646 159.656 131.346 161.027 139.295C162.26 146.97 162.397 151.903 161.301 154.096C159.656 163.141 155.271 175.612 148.281 191.647C132.11 229.609 107.441 272.778 74.0021 321.156C40.9738 369.533 19.5946 394.476 10.0013 396.12C5.47879 396.943 2.73786 394.339 1.64149 388.309C-1.92172 366.107 6.43812 334.038 26.9951 292.239C47.415 250.029 73.1798 208.641 104.289 167.938C135.673 126.824 170.209 90.0954 207.897 57.6154C245.858 24.9983 278.887 6.49699 306.57 1.83741C330.416 -2.13694 343.71 4.44129 346.588 21.4351C348.78 34.7286 344.258 53.0928 333.02 76.6648C321.645 99.8257 307.255 122.575 289.713 145.051C272.171 167.527 252.3 187.535 230.235 205.214C208.171 222.893 188.299 233.172 170.62 236.05C161.027 237.695 155.271 232.761 153.352 221.386C151.707 211.793 152.667 199.596 156.093 185.069L157.875 177.805Z" fill="white"/>
<path d="M294.512 289.908C294.101 293.471 289.852 296.897 281.767 300.05C273.955 303.065 266.418 304.161 259.428 303.339C244.764 301.694 237.912 293.334 239.008 278.122C229.141 292.923 215.71 299.364 198.717 297.446C189.534 296.349 182.271 292.923 176.926 286.893C171.581 280.726 169.389 273.325 170.348 264.829C172.267 247.424 184.464 234.678 206.665 226.867C214.34 224.263 227.222 222.344 245.449 220.837L246.409 212.888C248.464 194.113 249.013 181.778 247.642 175.611C245.449 164.373 238.46 158.069 226.537 156.699C219.136 155.877 212.558 157.11 207.076 160.673C201.732 164.099 198.717 169.033 198.031 175.2C197.894 176.845 198.991 177.941 201.594 178.215C204.335 178.489 206.665 180.134 208.447 182.875C210.228 185.616 211.051 188.631 210.64 191.783C209.543 201.102 204.335 205.35 195.016 204.254C190.083 203.706 186.245 201.65 183.367 198.087C180.626 194.387 179.393 189.864 180.078 184.793C181.175 174.789 186.108 166.566 194.742 160.262C204.335 153.41 216.944 150.806 232.43 152.587C255.865 155.191 269.433 163.277 273.407 176.571C274.777 181.641 274.64 191.509 272.996 205.899L266.28 265.514C265.184 275.244 264.636 281 264.636 282.782C264.773 290.593 267.514 294.705 272.585 295.253C278.478 295.938 283.685 294.294 287.934 290.456C290.264 288.401 292.045 287.304 293.142 287.441C294.238 287.989 294.649 288.675 294.512 289.908ZM242.16 249.753L244.764 226.456C228.456 228.237 216.396 231.8 208.721 236.871C201.32 241.805 196.935 249.205 195.839 259.073C195.016 265.925 196.387 271.681 199.676 276.615C203.239 281.274 208.036 284.015 213.929 284.7C223.111 285.797 230.922 281.411 237.638 271.818C239.282 269.625 240.79 262.362 242.16 249.753Z" fill="white"/>
<path d="M325.072 358.295C318.494 357.335 311.642 355.554 304.515 352.813C297.252 350.346 291.633 347.742 287.385 344.864C285.055 343.082 284.095 340.479 284.507 337.052L289.714 288.949C290.4 284.152 292.592 281.96 296.293 282.508C299.445 282.919 301.226 285.523 301.774 290.182C303.83 311.014 307.804 325.678 313.56 334.037C319.728 342.397 327.676 347.331 337.681 348.701C345.903 349.798 353.167 347.605 359.471 342.123C365.775 336.367 369.75 327.733 371.257 316.358C372.765 304.984 371.12 294.431 366.049 284.701C360.979 274.97 351.796 263.87 338.366 251.261C324.935 239.201 315.479 227.826 309.997 216.863C304.515 205.625 302.597 194.113 304.241 182.19C306.434 165.881 313.972 153.684 326.717 145.187C339.462 136.827 355.223 133.812 373.998 136.416C379.754 137.239 385.099 138.609 390.307 140.802C395.514 142.72 400.174 145.324 404.011 148.75C406.341 150.806 407.3 153.273 406.889 156.151L401.27 203.295C400.722 207.543 398.666 209.462 395.24 209.051C393.184 208.777 391.951 207.955 391.266 206.721C390.581 205.214 390.169 203.432 389.895 201.239C386.743 181.916 382.769 168.348 378.109 160.399C373.45 152.177 367.009 147.517 358.649 146.421C351.248 145.461 344.807 147.106 339.188 151.628C333.706 156.151 330.28 162.181 329.321 169.856C327.95 179.86 329.732 188.905 334.666 197.128C339.599 205.351 349.193 215.903 363.445 228.923C376.328 241.12 385.51 253.728 390.992 266.61C396.748 279.356 398.803 292.649 396.885 306.628C394.418 324.855 386.606 338.697 373.313 348.29C360.293 357.609 344.122 360.899 325.072 358.295Z" fill="white"/>
<path d="M424.704 176.297L424.018 163.003L437.312 162.318L436.627 149.025L449.92 148.339L448.55 121.752L475.137 120.382L476.507 146.969L503.094 145.598L503.78 158.892L517.073 158.207L518.444 184.794L505.15 185.479L505.835 198.772L492.542 199.458L493.227 212.751L479.933 213.436L477.193 160.125L463.899 160.811L464.584 174.104L451.291 174.789L455.95 268.118L469.244 267.433L469.929 280.726L456.636 281.412L457.321 294.705L444.027 295.39L444.712 308.684L418.125 310.054L411.41 176.845L424.704 176.297ZM480.619 226.867L479.933 213.573L466.64 214.259L467.325 227.552L480.619 226.867ZM514.058 358.706L514.743 371.999L501.45 372.685L502.135 385.978L488.841 386.663L490.212 413.25L463.625 414.621L462.254 388.034L435.667 389.404L434.982 376.111L421.689 376.796L420.318 350.209L433.612 349.524L432.926 336.23L446.22 335.545L445.535 322.251L458.828 321.566L461.569 374.877L474.863 374.192L474.177 360.899L487.471 360.213L482.811 266.885L469.518 267.57L468.833 254.276L482.126 253.591L481.441 240.298L494.734 239.612L494.049 226.319L520.636 224.948L527.352 358.158L514.058 358.706ZM458.006 308.136L458.691 321.429L471.985 320.744L471.3 307.45L458.006 308.136Z" fill="white"/>
<path d="M573.534 156.699C582.168 157.248 589.568 160.811 595.599 167.252C601.629 173.693 604.37 182.327 603.547 193.291L545.028 189.179C544.617 203.432 547.084 214.122 552.566 220.974C557.911 227.827 564.626 231.664 572.575 232.212C579.016 232.623 584.635 231.39 589.294 228.238C593.954 225.223 598.339 220.7 602.588 214.67L605.74 216.04C602.725 223.715 597.38 230.567 589.98 236.735C582.579 242.902 573.945 245.643 563.941 244.957C552.429 244.135 543.795 239.201 538.039 230.019C532.42 220.837 529.953 210.559 530.776 199.184C531.598 186.85 535.983 176.434 543.932 167.937C552.018 159.714 561.885 155.877 573.534 156.699ZM567.778 163.003C560.789 162.455 555.17 165.196 551.058 171.226C548.866 174.378 547.221 178.49 545.988 183.423L584.909 186.164C584.635 179.997 583.813 175.338 582.305 172.186C579.701 166.567 574.905 163.552 567.778 163.003Z" fill="white"/>
<path d="M593.684 363.777L625.204 153.821L673.308 161.085L669.607 185.342C673.856 180.545 690.85 161.77 718.122 165.881L719.629 166.155C749.231 170.541 762.114 192.194 758.139 218.781L733.197 384.882L683.997 377.481L706.199 230.156C708.392 215.218 704.691 203.98 689.616 201.651C674.678 199.458 666.866 208.914 664.4 225.36L642.472 371.177L593.684 363.777Z" fill="white"/>
<path d="M859.146 92.562C878.469 93.7954 887.925 102.292 895.189 114.215C905.33 105.856 914.924 98.1809 928.628 99.0032C937.536 99.5514 945.485 106.678 944.8 117.642C943.84 128.331 936.851 133.813 927.532 133.128C916.157 132.031 915.198 119.286 908.757 118.875C905.33 118.601 902.041 120.52 898.752 123.809C899.437 128.742 899.437 135.321 899.163 139.432C897.382 168.349 875.454 203.707 834.066 213.574C813.783 218.234 796.241 221.934 795.556 232.624C794.734 246.054 825.021 264.83 836.944 273.875C853.116 287.031 885.733 307.04 884.225 331.434C883.129 348.976 860.79 375.289 791.856 371.041C743.341 368.026 713.054 348.839 714.562 324.308C716.48 294.02 767.05 280.179 790.622 275.108C771.436 261.403 763.761 251.262 764.446 239.613C765.269 225.771 781.988 218.919 805.835 208.64C791.171 200.418 784.181 183.835 785.141 169.308C788.019 119.56 828.173 90.6434 859.146 92.562ZM852.019 334.175C853.116 317.592 829.818 303.066 804.053 283.468C763.213 294.02 746.905 307.862 745.808 324.034C744.575 344.042 762.117 356.24 799.393 358.432C836.944 360.899 851.06 350.073 852.019 334.175ZM825.295 202.199C850.101 203.707 871.343 156.015 872.85 131.894C873.81 117.093 869.698 105.444 858.323 104.759C835.985 103.389 812.824 146.558 811.042 175.475C810.22 190.139 815.428 201.514 825.295 202.199Z" fill="white"/>
<path d="M900.121 208.64V250.302H922.048V208.64C922.048 197.813 918.759 193.017 910.947 193.017C903.41 192.88 900.121 197.813 900.121 208.64ZM938.22 299.639C938.22 325.267 927.941 332.941 910.947 332.941C894.228 332.941 883.949 325.404 883.949 299.639V211.518C883.949 186.165 894.228 178.216 910.947 178.216C927.941 178.216 938.22 185.753 938.22 211.518V262.088H900.121V302.654C900.121 313.481 903.41 318.277 910.947 318.277C918.759 318.277 922.048 313.344 922.048 302.654V279.356H938.22V299.639Z" fill="white"/>
<path d="M944.249 210.285C943.426 197.951 941.919 188.358 939.726 181.642C937.807 174.79 934.655 168.897 930.27 163.689L930.133 161.085L978.784 152.451L980.018 152.314L983.581 203.981L985.774 203.844C989.885 184.52 996.6 170.13 1005.65 160.537C1015.1 150.67 1026.89 145.188 1041.28 144.229C1045.53 143.954 1050.87 144.091 1057.31 144.777L1060.05 184.383C1055.39 183.287 1049.77 182.876 1043.06 183.424C1032.51 184.109 1022.64 187.809 1013.59 194.525C1004.82 201.24 997.971 210.833 993.174 223.578C988.515 236.05 986.87 250.988 988.103 268.53L990.844 307.725C991.804 320.882 993.037 330.749 994.682 337.327C996.6 343.768 1000.03 349.798 1004.96 355.143L1005.1 356.925L945.345 361.036L945.208 359.255C948.771 353.225 950.964 346.92 951.649 340.205C952.334 333.216 952.197 323.348 951.375 310.329L944.249 210.285Z" fill="white"/>
<path d="M1226.29 212.888L1228.21 206.995C1225.47 207.68 1221.91 208.366 1217.52 208.914C1205.19 237.968 1187.65 256.743 1165.03 265.24C1152.01 270.174 1138.72 271.544 1125.01 269.762C1098.29 266.062 1080.2 252.769 1070.74 229.745C1066.22 218.918 1064.85 207.543 1066.5 195.62C1067.59 187.946 1070.06 180.545 1074.03 173.282L1078.28 175.2C1074.44 183.149 1072.11 190.275 1071.29 196.58C1069.1 212.614 1072.94 227.141 1082.67 240.435C1092.53 253.728 1105.55 261.403 1121.59 263.595C1145.57 266.885 1166.95 259.484 1186.14 241.394C1195.46 232.623 1203.41 221.933 1209.98 209.188C1202.17 209.051 1196 208.777 1191.21 208.092C1158.04 203.569 1135.16 187.26 1122.27 159.303C1116.24 146.284 1114.33 132.579 1116.24 118.052C1117.61 107.911 1121.45 97.495 1127.62 86.8054C1086.78 88.1758 1054.57 106.266 1031.27 141.076C1020.04 157.795 1013.05 175.886 1010.44 195.209C1007.57 215.766 1009.76 236.049 1016.89 256.058C1024.01 276.067 1035.39 292.649 1050.87 305.806C1066.5 319.099 1083.9 327.185 1103.22 329.789C1140.36 334.86 1170.24 320.881 1192.99 287.579C1196.96 281.686 1200.94 274.97 1204.91 267.159C1208.07 261.266 1211.77 252.906 1216.01 242.079C1218.89 235.227 1222.32 225.496 1226.29 212.888ZM1254.39 190.961L1254.11 193.291C1279.74 178.49 1297.56 160.948 1307.7 140.528C1311.67 132.716 1314 125.178 1315.1 117.915C1316.61 106.814 1313.18 100.647 1304.68 99.4136C1297.97 98.4543 1291.12 102.018 1283.85 110.103C1273.3 122.026 1264.8 142.72 1258.22 172.459C1256.31 181.093 1255.35 185.89 1255.21 186.712L1254.93 189.042C1254.66 189.727 1254.52 190.275 1254.39 190.961ZM1212.04 203.98C1214.64 196.168 1216.42 189.316 1217.25 183.423C1221.77 151.217 1210.94 124.904 1184.9 104.484C1172.98 95.1652 1159.14 89.4092 1143.52 87.3535C1139.68 86.8054 1136.94 86.5313 1135.29 86.3942C1127.89 97.495 1123.51 108.322 1122.14 119.011C1119.12 140.939 1124.88 159.988 1139.4 175.886C1152.97 190.961 1170.93 200.006 1193.26 203.158C1198.88 203.98 1205.19 204.254 1212.04 203.98ZM1253.29 199.321L1251.78 210.01C1246.03 252.221 1232.73 284.015 1212.18 305.806C1186.69 332.804 1153.52 343.357 1112.68 337.738C1077.32 332.804 1049.78 317.729 1030.04 292.375C1015.24 273.326 1006.33 251.261 1003.18 226.182C1001.67 213.573 1001.67 201.65 1003.32 190.001C1006.2 169.307 1013.6 150.395 1025.66 133.264C1037.85 116.27 1053.2 103.114 1071.84 93.9318C1090.48 84.7497 1110.62 80.3642 1131.87 80.7753C1155.03 56.244 1179.97 45.6914 1206.97 49.5287C1230.81 52.8178 1250.96 66.9336 1267.68 91.739L1263.84 94.8911C1247.53 70.6339 1228.62 57.0663 1206.97 54.0512C1179.83 50.351 1157.22 59.5331 1138.99 81.5976L1145.3 82.4199C1164.9 85.1608 1182.44 93.7947 1197.79 108.596C1210.81 121.067 1219.03 137.65 1222.59 158.618C1224.24 168.348 1224.37 177.667 1223.14 186.575C1222.59 190.687 1221.22 196.168 1219.17 203.021C1221.5 203.021 1222.18 203.021 1221.5 202.884L1224.51 202.199L1227.39 201.787C1227.53 201.65 1227.66 201.65 1227.8 201.65C1227.94 201.65 1228.07 201.65 1228.21 201.513L1229.58 201.239L1233.14 189.453C1239.72 167.389 1248.08 147.791 1258.22 130.66C1273.57 104.621 1289.33 92.6984 1305.51 94.8911C1319.07 96.8098 1324.83 106.266 1322.5 123.123C1320.44 138.198 1312.91 152.588 1299.89 166.429C1290.16 176.845 1274.53 187.809 1253.29 199.321Z" fill="white"/>
</svg>
